<svg version="1.1" xmlns="http://www.w3.org/2000/svg" xmlns:xlink="http://www.w3.org/1999/xlink" 
     width="32" height="32" viewBox="0 0 32 32" xml:space="preserve">
  
  <!-- Background circle -->
  <circle cx="16" cy="16" r="16" fill="#FFFFFF"/>
  
  <!-- JV Monogram -->
  <path fill="#67359A" d="
    M8,8 L24,8 L24,24 L8,24 Z
    M10,10 L22,10 L22,22 L10,22 Z
    M12,12 L20,12 L20,20 L12,20 Z
    M14,14 L18,14 L18,18 L14,18 Z
    M15,15 L17,15 L17,17 L15,17 Z
  "/>
  
  <!-- J shape -->
  <path fill="#67359A" d="
    M10,8 L14,8 L14,16 L16,16 L16,18 L14,18 L14,20 L12,20 L12,18 L10,18 L10,16 L12,16 L12,8 Z
  "/>
  
  <!-- V shape -->
  <path fill="#67359A" d="
    M16,8 L20,8 L20,16 L22,16 L22,18 L20,18 L20,20 L18,20 L18,18 L16,18 L16,16 L18,16 L18,8 Z
  "/>
  
</svg>
